<?xml version="1.0" encoding="UTF-8" standalone="no"?>
<!-- Created with Inkscape (http://www.inkscape.org/) -->

<svg
   xmlns:dc="http://purl.org/dc/elements/1.1/"
   xmlns:cc="http://creativecommons.org/ns#"
   xmlns:rdf="http://www.w3.org/1999/02/22-rdf-syntax-ns#"
   xmlns:svg="http://www.w3.org/2000/svg"
   xmlns="http://www.w3.org/2000/svg"
   version="1.2"
   width="540"
   height="180"
   viewBox="0 0 540 180"
   id="Layer_1"
   xml:space="preserve"><metadata
     id="metadata3089"><rdf:RDF><cc:Work
         rdf:about=""><dc:format>image/svg+xml</dc:format><dc:type
           rdf:resource="http://purl.org/dc/dcmitype/StillImage" /><dc:title></dc:title></cc:Work></rdf:RDF></metadata><defs
     id="defs3087" /><g
     transform="translate(8.2609375,-1.0825)"
     id="flowRoot3091"
     style="font-size:120px;font-style:normal;font-weight:normal;line-height:125%;letter-spacing:0px;word-spacing:0px;fill:#000000;fill-opacity:1;stroke:none;font-family:Sans"><path
       d="m 25.71875,49.4425 c 0,-3.119913 1.479999,-4.679911 4.44,-4.68 2.959993,8.9e-5 4.439991,1.560087 4.44,4.68 l 0,26.76 c 5.039986,-7.599935 11.639979,-11.399931 19.8,-11.4 8.719963,6.9e-5 15.679956,3.720065 20.88,11.16 4.719946,6.640051 7.079943,14.760043 7.08,24.36 -5.7e-5,9.44002 -2.320054,17.40002 -6.96,23.88 -5.120045,7.28 -12.120038,10.92 -21,10.92 -8.48002,0 -15.080014,-3.2 -19.8,-9.6 l 0,4.56 c -9e-6,1.52 -0.480008,2.72 -1.44,3.6 -0.880007,0.88 -1.920006,1.32 -3.12,1.32 -2.880001,0 -4.32,-1.68 -4.32,-5.04 l 0,-80.52 m 28.68,77.88 c 5.679966,10e-6 10.159961,-2.75999 13.44,-8.28 2.879955,-4.95998 4.319954,-11.07997 4.32,-18.36 -4.6e-5,-7.43996 -1.480045,-13.799953 -4.44,-19.08 -3.360039,-5.839942 -7.800034,-8.759939 -13.32,-8.76 -6.160023,6.1e-5 -11.040018,2.880058 -14.64,8.64 -3.280011,5.120047 -4.920009,11.360041 -4.92,18.72 -9e-6,7.36003 1.599989,13.56002 4.8,18.6 3.679982,5.68001 8.599977,8.52001 14.76,8.52"
       id="path3100"
       style="font-variant:normal;font-stretch:normal;fill:#033cd2;fill-opacity:1;stroke:#78e600;stroke-width:3;font-family:MgOpen Modata;-inkscape-font-specification:MgOpen Modata" /><path
       d="m 91.34375,71.4025 c 0,-2.959935 1.439999,-4.439933 4.32,-4.44 2.959993,6.7e-5 4.43999,1.480065 4.44,4.44 l 0,38.76 c -1e-5,5.36002 1.67999,9.56001 5.04,12.6 3.03998,2.80001 6.71998,4.20001 11.04,4.2 4.47997,10e-6 8.27997,-1.39999 11.4,-4.2 3.43996,-3.19999 5.15996,-7.39998 5.16,-12.6 l 0,-38.76 c -4e-5,-2.959935 1.43996,-4.439933 4.32,-4.44 2.95995,6.7e-5 4.43995,1.480065 4.44,4.44 l 0,41.64 c -5e-5,9.12001 -4.32005,15.56 -12.96,19.32 -8.08003,3.52 -16.16002,3.56 -24.24,0.12 -8.640004,-3.76 -12.96,-10.23999 -12.96,-19.44 l 0,-41.64"
       id="path3102"
       style="font-variant:normal;font-stretch:normal;fill:#033cd2;fill-opacity:1;stroke:#78e600;stroke-width:3;font-family:MgOpen Modata;-inkscape-font-specification:MgOpen Modata" /><path
       d="m 151.10937,68.8825 c 0,-2.719933 1.44,-4.079931 4.32,-4.08 2.96,6.9e-5 4.48,1.440067 4.56,4.32 0.08,3.200061 0.08,5.240059 0,6.12 4.31999,-6.959935 10.71999,-10.439931 19.2,-10.44 5.99997,6.9e-5 11.11997,1.960067 15.36,5.88 4.63996,4.240059 6.95995,10.000053 6.96,17.28 l 0,41.28 c -5e-5,2.96 -1.52004,4.44 -4.56,4.44 -2.96004,0 -4.44004,-1.48 -4.44,-4.44 l 0,-40.32 c -4e-5,-4.639951 -1.48003,-8.359947 -4.44,-11.16 -2.80003,-2.479942 -6.20003,-3.71994 -10.2,-3.72 -4.72002,6e-5 -8.76001,1.640058 -12.12,4.92 -3.84001,3.680051 -5.76,8.640046 -5.76,14.88 l 0,35.4 c 0,2.96 -1.52,4.44 -4.56,4.44 -2.88,0 -4.32,-1.48 -4.32,-4.44 l 0,-60.36"
       id="path3104"
       style="font-variant:normal;font-stretch:normal;fill:#033cd2;fill-opacity:1;stroke:#78e600;stroke-width:3;font-family:MgOpen Modata;-inkscape-font-specification:MgOpen Modata" /><path
       d="m 258.04062,75.9625 0,-26.64 c -4e-5,-3.119913 1.51996,-4.679911 4.56,-4.68 2.87995,8.9e-5 4.31995,1.560087 4.32,4.68 l 0,81.96 c -5e-5,2.72 -1.44005,4.08 -4.32,4.08 -3.04004,0 -4.56004,-1.4 -4.56,-4.2 l 0,-5.64 c -4.16004,6.48 -10.68003,9.72 -19.56,9.72 -8.88001,0 -15.88001,-3.56 -21,-10.68 -4.56,-6.47998 -6.84,-14.39998 -6.84,-23.76 0,-9.679958 2.36,-17.919949 7.08,-24.72 5.19999,-7.519935 12.11999,-11.279931 20.76,-11.28 7.19997,6.9e-5 13.71996,3.720065 19.56,11.16 m -19.56,-2.04 c -5.68002,6e-5 -10.20001,2.800057 -13.56,8.4 -3.12001,5.040046 -4.68,11.16004 -4.68,18.36 0,7.04003 1.51999,12.96002 4.56,17.76 3.35999,5.36001 7.91998,8.04001 13.68,8.04 6.31997,1e-5 11.35997,-2.71999 15.12,-8.16 3.27996,-4.95998 4.91996,-10.95997 4.92,-18 -4e-5,-7.19996 -1.68004,-13.279953 -5.04,-18.24 -3.68003,-5.439943 -8.68003,-8.15994 -15,-8.16"
       id="path3106"
       style="font-variant:normal;font-stretch:normal;fill:#033cd2;fill-opacity:1;stroke:#78e600;stroke-width:3;font-family:MgOpen Modata;-inkscape-font-specification:MgOpen Modata" /><path
       d="m 276.96875,49.0825 c 0,-3.039912 1.44,-4.559911 4.32,-4.56 3.03999,8.9e-5 4.55999,1.520088 4.56,4.56 l 0,80.04 c -10e-6,3.04 -1.48001,4.56 -4.44,4.56 -2.96,0 -4.44,-1.52 -4.44,-4.56 l 0,-80.04"
       id="path3108"
       style="font-variant:normal;font-stretch:normal;fill:#033cd2;stroke:#78e600;stroke-width:3;font-family:MgOpen Modata;-inkscape-font-specification:MgOpen Modata" /><path
       d="m 324.75875,64.6825 c 8.55996,6.9e-5 15.31996,2.720066 20.28,8.16 4.95995,5.360055 7.43994,12.640048 7.44,21.84 -6e-5,6.48003 -1.04006,9.72003 -3.12,9.72 l -43.44,0 c -10e-6,5.68002 2.07999,10.92002 6.24,15.72 4.23998,4.80001 9.07997,7.20001 14.52,7.2 3.27997,10e-6 6.47996,-0.87999 9.6,-2.64 1.51996,-0.79999 3.75996,-2.35999 6.72,-4.68 2.15995,-1.75998 3.71995,-2.63998 4.68,-2.64 1.19995,2e-5 2.23995,0.48002 3.12,1.44 0.87994,0.96001 1.31994,2.00001 1.32,3.12 -6e-5,0.96001 -0.28006,1.76001 -0.84,2.4 -5.68005,7.2 -13.88004,10.8 -24.6,10.8 -9.84002,0 -17.64001,-3.68 -23.4,-11.04 -5.04,-6.47998 -7.56,-14.51998 -7.56,-24.12 0,-9.519957 2.48,-17.599949 7.44,-24.24 5.35999,-7.359935 12.55998,-11.039931 21.6,-11.04 m -18.84,30.6 37.56,0 c -5e-5,-7.039955 -1.92005,-12.599949 -5.76,-16.68 -3.44004,-3.679941 -7.68003,-5.51994 -12.72,-5.52 -5.04002,6e-5 -9.36002,1.840059 -12.96,5.52 -3.92001,4.160051 -5.96001,9.720045 -6.12,16.68"
       id="path3110"
       style="font-variant:normal;font-stretch:normal;fill:#033cd2;fill-opacity:1;stroke:#78e600;stroke-width:3;stroke-opacity:1;font-family:MgOpen Modata;-inkscape-font-specification:MgOpen Modata" /><path
       d="m 360.17187,49.4425 c 0,-3.119913 1.48,-4.679911 4.44,-4.68 2.96,8.9e-5 4.44,1.560087 4.44,4.68 l 0,26.76 c 5.03999,-7.599935 11.63998,-11.399931 19.8,-11.4 8.71997,6.9e-5 15.67996,3.720065 20.88,11.16 4.71995,6.640051 7.07995,14.760043 7.08,24.36 -5e-5,9.44002 -2.32005,17.40002 -6.96,23.88 -5.12004,7.28 -12.12003,10.92 -21,10.92 -8.48002,0 -15.08001,-3.2 -19.8,-9.6 l 0,4.56 c 0,1.52 -0.48,2.72 -1.44,3.6 -0.88,0.88 -1.92,1.32 -3.12,1.32 -2.88,0 -4.32,-1.68 -4.32,-5.04 l 0,-80.52 m 28.68,77.88 c 5.67997,10e-6 10.15997,-2.75999 13.44,-8.28 2.87996,-4.95998 4.31996,-11.07997 4.32,-18.36 -4e-5,-7.43996 -1.48004,-13.799953 -4.44,-19.08 -3.36003,-5.839942 -7.80003,-8.759939 -13.32,-8.76 -6.16002,6.1e-5 -11.04001,2.880058 -14.63999,8.64 -3.28002,5.120047 -4.92001,11.360041 -4.92001,18.72 0,7.36003 1.59999,13.56002 4.80001,18.6 3.67998,5.68001 8.59997,8.52001 14.75999,8.52"
       id="path3112"
       style="font-variant:normal;font-stretch:normal;fill:#969696;fill-opacity:1;font-family:MgOpen Modata;-inkscape-font-specification:MgOpen Modata" /><path
       d="m 431.91687,44.5225 c 1.92,8.9e-5 3.44,0.680088 4.56,2.04 1.19999,1.280086 1.79999,2.760084 1.80001,4.44 -2e-5,3.840079 -2.16002,5.760077 -6.48001,5.76 -1.84,7.7e-5 -3.32,-0.639923 -4.44,-1.92 -1.04,-1.35992 -1.56,-2.879918 -1.56,-4.56 0,-3.839913 2.04,-5.759911 6.12,-5.76 m -4.32,24.72 c 0,-2.959933 1.44,-4.439931 4.32,-4.44 3.04,6.9e-5 4.55999,1.480067 4.56,4.44 l 0,59.88 c -1e-5,3.04 -1.48,4.56 -4.44,4.56 -2.96,0 -4.44,-1.52 -4.44,-4.56 l 0,-59.88"
       id="path3114"
       style="font-variant:normal;font-stretch:normal;fill:#969696;fill-opacity:1;font-family:MgOpen Modata;-inkscape-font-specification:MgOpen Modata" /><path
       d="m 447.35937,68.8825 c 0,-2.719933 1.44,-4.079931 4.32,-4.08 2.96,6.9e-5 4.48,1.440067 4.56,4.32 0.08,3.200061 0.08,5.240059 0,6.12 4.31999,-6.959935 10.71999,-10.439931 19.2,-10.44 5.99997,6.9e-5 11.11997,1.960067 15.36,5.88 4.63996,4.240059 6.95995,10.000053 6.96,17.28 l 0,41.28 c -5e-5,2.96 -1.52004,4.44 -4.55999,4.44 -2.96005,0 -4.44005,-1.48 -4.44001,-4.44 l 0,-40.32 c -4e-5,-4.639951 -1.48003,-8.359947 -4.44,-11.16 -2.80003,-2.479942 -6.20003,-3.71994 -10.2,-3.72 -4.72002,6e-5 -8.76001,1.640058 -12.12,4.92 -3.84001,3.680051 -5.76,8.640046 -5.76,14.88 l 0,35.4 c 0,2.96 -1.52,4.44 -4.56,4.44 -2.88,0 -4.32,-1.48 -4.32,-4.44 l 0,-60.36"
       id="path3116"
       style="font-variant:normal;font-stretch:normal;fill:#969696;fill-opacity:1;font-family:MgOpen Modata;-inkscape-font-specification:MgOpen Modata" /></g></svg>